<?xml version="1.0" encoding="UTF-8" standalone="no"?>
<!DOCTYPE svg PUBLIC "-//W3C//DTD SVG 1.1//EN"
 "http://www.w3.org/Graphics/SVG/1.1/DTD/svg11.dtd">
<!-- Generated by graphviz version 5.0.0 (20220707.1540)
 -->
<!-- Title: dependencies Pages: 1 -->
<svg width="554pt" height="247pt"
 viewBox="0.00 0.00 554.00 246.80" xmlns="http://www.w3.org/2000/svg" xmlns:xlink="http://www.w3.org/1999/xlink">
<g id="graph0" class="graph" transform="scale(1 1) rotate(0) translate(4 242.8)">
<title>dependencies</title>
<polygon fill="white" stroke="transparent" points="-4,4 -4,-242.8 550,-242.8 550,4 -4,4"/>
<text text-anchor="middle" x="273" y="-8.2" font-family="sans-serif" font-size="14.00">dependencies</text>
<g id="clust1" class="cluster">
<title>cluster_BaseModule</title>
<polygon fill="none" stroke="black" stroke-dasharray="1,5" points="8,-32.8 8,-230.8 538,-230.8 538,-32.8 8,-32.8"/>
</g>
<g id="clust2" class="cluster">
<title>cluster_BaseModule_declarations</title>
<polygon fill="none" stroke="black" points="182,-40.8 182,-92.8 530,-92.8 530,-40.8 182,-40.8"/>
</g>
<g id="clust6" class="cluster">
<title>cluster_BaseModule_exports</title>
<polygon fill="none" stroke="black" points="96,-170.8 96,-222.8 451,-222.8 451,-170.8 96,-170.8"/>
</g>
<g id="clust8" class="cluster">
<title>cluster_BaseModule_providers</title>
<polygon fill="none" stroke="black" points="16,-40.8 16,-92.8 174,-92.8 174,-40.8 16,-40.8"/>
</g>
<!-- FormContentComponent -->
<g id="node1" class="node">
<title>FormContentComponent</title>
<polygon fill="#ffffb3" stroke="black" points="522,-84.8 366,-84.8 366,-48.8 522,-48.8 522,-84.8"/>
<text text-anchor="middle" x="444" y="-62.6" font-family="Times,serif" font-size="14.00">FormContentComponent</text>
</g>
<!-- BaseModule -->
<g id="node3" class="node">
<title>BaseModule</title>
<polygon fill="#8dd3c7" stroke="black" points="312.27,-149.8 309.27,-153.8 288.27,-153.8 285.27,-149.8 225.73,-149.8 225.73,-113.8 312.27,-113.8 312.27,-149.8"/>
<text text-anchor="middle" x="269" y="-127.6" font-family="Times,serif" font-size="14.00">BaseModule</text>
</g>
<!-- FormContentComponent&#45;&gt;BaseModule -->
<g id="edge1" class="edge">
<title>FormContentComponent&#45;&gt;BaseModule</title>
<path fill="none" stroke="black" d="M404.38,-84.91C404.38,-104.14 404.38,-131.8 404.38,-131.8 404.38,-131.8 322.58,-131.8 322.58,-131.8"/>
<polygon fill="black" stroke="black" points="322.58,-128.3 312.58,-131.8 322.58,-135.3 322.58,-128.3"/>
</g>
<!-- TableContentComponent -->
<g id="node2" class="node">
<title>TableContentComponent</title>
<polygon fill="#ffffb3" stroke="black" points="347.53,-84.8 190.47,-84.8 190.47,-48.8 347.53,-48.8 347.53,-84.8"/>
<text text-anchor="middle" x="269" y="-62.6" font-family="Times,serif" font-size="14.00">TableContentComponent</text>
</g>
<!-- TableContentComponent&#45;&gt;BaseModule -->
<g id="edge2" class="edge">
<title>TableContentComponent&#45;&gt;BaseModule</title>
<path fill="none" stroke="black" d="M269,-84.91C269,-84.91 269,-103.79 269,-103.79"/>
<polygon fill="black" stroke="black" points="265.5,-103.79 269,-113.79 272.5,-103.79 265.5,-103.79"/>
</g>
<!-- FormContentComponent  -->
<g id="node4" class="node">
<title>FormContentComponent </title>
<polygon fill="#fb8072" stroke="black" points="442.5,-214.8 283.5,-214.8 283.5,-178.8 442.5,-178.8 442.5,-214.8"/>
<text text-anchor="middle" x="363" y="-192.6" font-family="Times,serif" font-size="14.00">FormContentComponent </text>
</g>
<!-- BaseModule&#45;&gt;FormContentComponent  -->
<g id="edge3" class="edge">
<title>BaseModule&#45;&gt;FormContentComponent </title>
<path fill="none" stroke="black" stroke-dasharray="5,2" d="M297.82,-149.91C297.82,-149.91 297.82,-168.79 297.82,-168.79"/>
<polygon fill="black" stroke="black" points="294.32,-168.79 297.82,-178.79 301.32,-168.79 294.32,-168.79"/>
</g>
<!-- TableContentComponent  -->
<g id="node5" class="node">
<title>TableContentComponent </title>
<polygon fill="#fb8072" stroke="black" points="265.53,-214.8 104.47,-214.8 104.47,-178.8 265.53,-178.8 265.53,-214.8"/>
<text text-anchor="middle" x="185" y="-192.6" font-family="Times,serif" font-size="14.00">TableContentComponent </text>
</g>
<!-- BaseModule&#45;&gt;TableContentComponent  -->
<g id="edge4" class="edge">
<title>BaseModule&#45;&gt;TableContentComponent </title>
<path fill="none" stroke="black" stroke-dasharray="5,2" d="M245.57,-149.91C245.57,-149.91 245.57,-168.79 245.57,-168.79"/>
<polygon fill="black" stroke="black" points="242.07,-168.79 245.57,-178.79 249.07,-168.79 242.07,-168.79"/>
</g>
<!-- ChoicesService -->
<g id="node6" class="node">
<title>ChoicesService</title>
<ellipse fill="#fdb462" stroke="black" cx="95" cy="-66.8" rx="71.21" ry="18"/>
<text text-anchor="middle" x="95" y="-62.6" font-family="Times,serif" font-size="14.00">ChoicesService</text>
</g>
<!-- ChoicesService&#45;&gt;BaseModule -->
<g id="edge5" class="edge">
<title>ChoicesService&#45;&gt;BaseModule</title>
<path fill="none" stroke="black" d="M135.29,-81.88C135.29,-101.08 135.29,-131.8 135.29,-131.8 135.29,-131.8 215.59,-131.8 215.59,-131.8"/>
<polygon fill="black" stroke="black" points="215.59,-135.3 225.59,-131.8 215.59,-128.3 215.59,-135.3"/>
</g>
</g>
</svg>
